<?xml version="1.0" encoding="utf-8"?>
<!-- Generator: Adobe Illustrator 24.2.1, SVG Export Plug-In . SVG Version: 6.00 Build 0)  -->
<svg version="1.1" id="레이어_2" xmlns="http://www.w3.org/2000/svg" xmlns:xlink="http://www.w3.org/1999/xlink" x="0px"
	 y="0px" viewBox="0 0 400 400" style="enable-background:new 0 0 400 400;" xml:space="preserve">
<style type="text/css">
	.st0{fill:none;stroke:#000000;stroke-width:2;stroke-miterlimit:10;}
</style>
<path class="st0" d="M102.5,303.5c0,0,8,5,8-22s-4-44-4-44l-3-18l1-12l2-17l-35-4h-3l-2,4l-9,99v5c0,0,3,12,7,18s10,8,10,8h23l17-10
	l16-17l4,2l4,14l3,14l-3,27h165l-2-36v-50v-7l12,11l11.434,4.147"/>
<path class="st0" d="M104.204,223.725L119.5,207.5l6-2l19-5l8-8l3-3c0,0-6-4-6-7s4-6,4-6l11,8l7,5h6l8-3l12-10l7-11l8-8h4v4v8l10,6
	l8,5h11l13-1"/>
<polygon class="st0" points="253.5,174.5 271.5,190.5 280.5,213.5 284.5,223.5 292.5,235.5 303.5,246.5 307.941,257.602 
	309.5,261.5 319.192,268.5 327.5,274.5 351.5,274.5 365.5,259.5 365.5,239.5 362.5,229.5 358.5,223.5 350.5,213.5 342.5,202.5 
	317.5,180.5 287.5,149.5 278.5,153.5 266.5,160.5 258.5,168.5 "/>
<path class="st0" d="M71.5,186.5v-10l-4-10l-3-14l-2-6l-24-22c0,0-2-4,3-5s7,3,7,3l18,14l-8-14l-6-15c0,0-1-4,2-5s5,2,5,2l6,9l9,19
	v-28v-10c0,0,1-3,4-3s4,2,4,2l1.585,3.962L84.5,98.5v2.056V130.5"/>
<path class="st0" d="M84.5,100.5c0,0,1-3,4-3s5,3,5,3l1,31l3,5l7,11c0,0,2,3,4,3s5-1,5-1l5-5c0,0,3-3,8-4s9,2,9,2l2,3v2h-5l-4,3
	l-9,7l-4,11l-8,12l-3,4l-2.051,5.537"/>
<path class="st0" d="M257.324,169.912L247.5,160.5h-6l-6-3l-15-12l-6-7h-7h-9v-4c0,0,1-6,8-6s12,3,12,3h11l14-20l1-20l-5-6
	c0,0-2-4,1-5s5,0,5,0l6,9v3.648V105.5"/>
<path class="st0" d="M281.488,152.172L271.5,142.5l-3-3v-15v-15l5-10l1-16v-3v-4h-4c0,0-4,5-4,8s-1,7-1,7l-3,9l-5,6"/>
<path class="st0" d="M251.5,89.5v-9l-2-5c0,0-2-4,1-6s5,2,5,2l4,13v6"/>
<path class="st0" d="M255.5,104.5l4-17.13l-2-13.87c0,0-2-3,2-6s6,7,6,7l1.722,7.259"/>
<polyline class="st0" points="126.5,140.5 124.5,135.5 121.5,129.5 124.5,124.5 124.5,111.5 119.5,104.5 119.5,97.5 124.5,90.5 
	133.5,83.5 141.5,78.5 153.5,74.5 164.5,73.5 177.5,74.5 187.5,76.5 202.5,83.5 211.5,90.5 216.5,96.5 219.5,107.5 219.5,109.5 
	223.5,108.5 226.5,110.5 227.5,116.5 227.5,124.5 225.889,131.5 "/>
<path class="st0" d="M219.016,143.769c0.484-0.269-2.516,9.731-2.516,9.731l-4,4"/>
<polyline class="st0" points="124.5,90.5 126.5,79.5 130.5,68.5 137.5,62.5 146.5,56.5 157.5,51.5 167.5,49.5 173.5,49.5 
	184.5,51.5 196.5,55.5 200.5,57.5 206.5,63.5 210.5,71.5 213.5,79.5 215.5,85.5 216.5,95.5 "/>
<polygon class="st0" points="139.5,76.5 139.5,64.5 146.5,58.5 153.5,55.5 160.5,53.5 164.5,53.5 164.5,53.963 164.5,65.5 
	160.5,65.5 158.5,65.5 156.5,66.5 153.5,68.5 148.5,70.5 145.5,72.5 141.5,75.5 "/>
<polygon class="st0" points="169.5,52.5 164.5,54.333 164.5,66.5 168.5,66.5 173.5,65.5 178.5,66.5 185.5,69.5 185.5,62.5 
	185.5,57.5 179.5,56.5 173.5,54.5 "/>
<polyline class="st0" points="129.833,149.5 133.5,152.5 136.5,152.5 145.5,169.5 148.5,173.5 151.5,176.5 153.5,176.5 "/>
<polyline class="st0" points="124.5,124.5 128.5,124.5 131.5,131.5 132.5,114.5 134.5,104.5 134.5,99.25 "/>
<polyline class="st0" points="211.522,98.685 212.5,105.5 215.5,114.5 216.5,121.5 217.5,111.5 219.5,108.5 216.5,104.5 212.5,99.5 
	206.5,94.5 200.5,89.5 192.5,85.5 183.5,82.5 172.5,80.5 162.5,80.5 154.5,81.5 147.5,84.5 140.5,89.5 132.5,102.5 124.5,118.333 
	"/>
<polygon class="st0" points="155.5,105.5 155.5,104.5 154.5,103.5 151.5,103.5 148.5,104.5 143.5,106.5 140.5,108.5 137.5,111.5 
	137.5,114.5 138.5,114.5 140.5,113.5 145.5,110.5 149.5,108.5 153.5,106.5 "/>
<polyline class="st0" points="182.5,103.5 181.5,104.5 182.5,105.5 186.5,106.5 191.5,107.5 196.5,108.5 202.5,109.5 201.5,107.5 
	200.5,105.5 198.5,103.5 195.5,101.5 192.5,101.5 188.5,101.5 185.5,101.5 182.5,103.5 "/>
<polyline class="st0" points="159.5,118.5 157.5,116.5 155.5,115.5 152.5,115.5 149.5,116.5 146.5,118.5 143.5,121.5 141.5,123.5 
	"/>
<polyline class="st0" points="182.5,115.5 184.5,113.5 187.5,111.5 190.5,111.5 193.5,113.5 196.5,114.5 199.5,115.5 201.5,115.5 
	203.5,114.5 "/>
<polygon class="st0" points="161.5,158.5 165.5,155.5 168.5,153.5 172.5,155.5 175.5,152.5 183.5,153.5 187.5,155.5 177.5,159.5 
	171.5,161.5 165.5,161.5 161.5,159.5 "/>
<polyline class="st0" points="160.5,133.5 158.5,135.5 159.5,137.5 160.5,138.5 161.5,139.5 165.5,138.5 168.5,137.5 171.5,138.5 
	173.5,138.5 176.5,136.5 180.5,136.5 183.5,136.5 185.5,133.5 183.5,132.5 181.5,132.5 178.5,131.5 "/>
</svg>
